<svg id="Capa_1" enable-background="new 0 0 509.842 509.842" height="100" viewBox="0 0 509.842 509.842" width="100" xmlns="http://www.w3.org/2000/svg"><path id="XMLID_544_" d="m233.063 95.128c8.885-8.884 13.778-20.697 13.778-33.262s-4.893-24.378-13.777-33.262l-14.069-14.069c-18.341-18.34-48.183-18.34-66.523 0l-24.532 24.532z" fill="#ffa426"/><path id="XMLID_31_" d="m496.086 291.627-14.068-14.068c-18.341-18.341-48.183-18.341-66.523 0l56.06 105.124 24.532-24.532c18.34-18.341 18.34-48.183-.001-66.524z" fill="#fe8205"/><path id="XMLID_477_" d="m404.664 197.077 16.87-16.87c35.11-35.11 58.84-79.364 68.658-128.021 2.541-8.785.46-18.022-5.666-24.909-6.374-7.166-15.786-10.278-25.177-8.324l-2.065.43c-48.074 9.999-91.837 33.637-126.559 68.358l-18.017 18.016-248.452-103.175-63.214 63.215 196.463 156.432-98.256 109.713-62.151-7.007c-10.144-1.148-20.105 2.339-27.328 9.56-7.606 7.607-11.088 18.483-9.313 29.093s8.607 19.761 18.276 24.477l69.564 33.937 34.722 68.07c4.829 9.467 13.979 16.109 24.476 17.77 10.5 1.658 21.249-1.835 28.763-9.349 7.325-7.324 10.788-17.419 9.501-27.698l-7.512-60.019 109.626-98.178 156.432 196.464 63.203-63.203z" fill="#fff573"/><path id="XMLID_675_" d="m404.664 197.077 16.87-16.87c35.11-35.11 58.84-79.364 68.658-128.021 2.541-8.785.46-18.022-5.666-24.909-.222-.25-.457-.483-.686-.723l-395.51 395.51 34.691 68.009c4.829 9.467 13.979 16.109 24.476 17.77 10.5 1.658 21.249-1.835 28.763-9.349 7.325-7.324 10.788-17.419 9.501-27.698l-7.512-60.019 109.626-98.178 156.432 196.464 63.203-63.203z" fill="#ffda45"/><path id="XMLID_1508_" d="m185.777 470.895-7.53-60.12-60.505-18.125-18.493-60.708-62.166-7.014c-10.155-1.131-20.117 2.361-27.309 9.57-6.303 6.303-9.774 14.666-9.774 23.548 0 12.87 7.174 24.371 18.734 30.021l69.563 33.932 34.721 68.071c4.828 9.468 13.977 16.111 24.474 17.772 1.722.272 3.45.406 5.17.406 8.767 0 17.313-3.474 23.594-9.755 6.296-6.296 9.764-14.666 9.764-23.567 0-1.308-.082-2.664-.243-4.031z" fill="#ffda45"/><path id="XMLID_523_" d="m392.254 167.059-122.625 122.625 174.676 219.377 63.203-63.202z" fill="#ffa426"/><path id="XMLID_583_" d="m64.256 2.582-63.214 63.215 219.376 174.677 122.267-122.268z" fill="#ffda45"/><path id="XMLID_672_" d="m178.247 410.776-60.505-18.125-29.412 29.412 34.688 68.007c4.828 9.468 13.977 16.111 24.474 17.772 1.722.272 3.45.406 5.17.406 8.767 0 17.313-3.474 23.594-9.755 6.296-6.296 9.764-14.666 9.764-23.567 0-1.308-.082-2.664-.243-4.03z" fill="#ffa426"/></svg>